<mxfile host="app.diagrams.net" modified="2022-09-03T01:48:50.886Z" agent="5.0 (Windows NT 10.0; Win64; x64) AppleWebKit/537.36 (KHTML, like Gecko) Chrome/104.0.0.0 Safari/537.36" etag="c6rQzSvUZrJgvGGqjdfI" version="20.2.7" type="github">
  <diagram name="Page-1" id="13e1069c-82ec-6db2-03f1-153e76fe0fe0">
    <mxGraphModel dx="1422" dy="786" grid="1" gridSize="10" guides="1" tooltips="1" connect="1" arrows="1" fold="1" page="1" pageScale="1" pageWidth="1100" pageHeight="850" background="none" math="0" shadow="0">
      <root>
        <mxCell id="0" />
        <mxCell id="1" parent="0" />
        <mxCell id="7baba1c4bc27f4b0-2" value=":Generation" style="shape=umlLifeline;perimeter=lifelinePerimeter;whiteSpace=wrap;html=1;container=1;collapsible=0;recursiveResize=0;outlineConnect=0;rounded=1;shadow=0;comic=0;labelBackgroundColor=none;strokeWidth=1;fontFamily=Verdana;fontSize=12;align=center;" parent="1" vertex="1">
          <mxGeometry x="310" y="80" width="100" height="580" as="geometry" />
        </mxCell>
        <mxCell id="1AVtyDvA7BN9YdRGPxAG-4" value="" style="html=1;points=[];perimeter=orthogonalPerimeter;rounded=0;shadow=0;comic=0;labelBackgroundColor=none;strokeWidth=1;fontFamily=Verdana;fontSize=12;align=center;" parent="7baba1c4bc27f4b0-2" vertex="1">
          <mxGeometry x="45" y="110" width="10" height="280" as="geometry" />
        </mxCell>
        <mxCell id="7baba1c4bc27f4b0-3" value=":LSystem" style="shape=umlLifeline;perimeter=lifelinePerimeter;whiteSpace=wrap;html=1;container=1;collapsible=0;recursiveResize=0;outlineConnect=0;rounded=1;shadow=0;comic=0;labelBackgroundColor=none;strokeWidth=1;fontFamily=Verdana;fontSize=12;align=center;" parent="1" vertex="1">
          <mxGeometry x="470" y="80" width="100" height="580" as="geometry" />
        </mxCell>
        <mxCell id="-UHUzhMTuZ9a_9bw1Lbl-2" value="" style="endArrow=classic;html=1;rounded=0;entryX=-0.033;entryY=0;entryDx=0;entryDy=0;entryPerimeter=0;" parent="7baba1c4bc27f4b0-3" edge="1">
          <mxGeometry relative="1" as="geometry">
            <mxPoint x="-100" y="130" as="sourcePoint" />
            <mxPoint x="35.17000000000007" y="130" as="targetPoint" />
          </mxGeometry>
        </mxCell>
        <mxCell id="-UHUzhMTuZ9a_9bw1Lbl-3" value="Generate L System" style="edgeLabel;resizable=0;html=1;align=center;verticalAlign=middle;labelBackgroundColor=#ffffff;" parent="-UHUzhMTuZ9a_9bw1Lbl-2" connectable="0" vertex="1">
          <mxGeometry relative="1" as="geometry" />
        </mxCell>
        <mxCell id="-UHUzhMTuZ9a_9bw1Lbl-5" value="" style="endArrow=classic;html=1;rounded=0;entryX=-0.033;entryY=0;entryDx=0;entryDy=0;entryPerimeter=0;" parent="7baba1c4bc27f4b0-3" edge="1">
          <mxGeometry relative="1" as="geometry">
            <mxPoint x="60" y="150" as="sourcePoint" />
            <mxPoint x="180.17000000000007" y="149.66" as="targetPoint" />
          </mxGeometry>
        </mxCell>
        <mxCell id="-UHUzhMTuZ9a_9bw1Lbl-6" value="Generate Turtle" style="edgeLabel;resizable=0;html=1;align=center;verticalAlign=middle;labelBackgroundColor=#ffffff;" parent="-UHUzhMTuZ9a_9bw1Lbl-5" connectable="0" vertex="1">
          <mxGeometry relative="1" as="geometry" />
        </mxCell>
        <mxCell id="-UHUzhMTuZ9a_9bw1Lbl-15" value="" style="endArrow=classic;html=1;rounded=0;dashed=1;" parent="7baba1c4bc27f4b0-3" edge="1">
          <mxGeometry relative="1" as="geometry">
            <mxPoint x="469.5" y="230" as="sourcePoint" />
            <mxPoint x="70" y="230" as="targetPoint" />
            <Array as="points">
              <mxPoint x="70" y="230" />
            </Array>
          </mxGeometry>
        </mxCell>
        <mxCell id="-UHUzhMTuZ9a_9bw1Lbl-16" value="Return Image" style="edgeLabel;resizable=0;html=1;align=center;verticalAlign=middle;labelBackgroundColor=#ffffff;" parent="-UHUzhMTuZ9a_9bw1Lbl-15" connectable="0" vertex="1">
          <mxGeometry relative="1" as="geometry" />
        </mxCell>
        <mxCell id="-UHUzhMTuZ9a_9bw1Lbl-4" value="" style="html=1;points=[];perimeter=orthogonalPerimeter;rounded=0;shadow=0;comic=0;labelBackgroundColor=none;strokeWidth=1;fontFamily=Verdana;fontSize=12;align=center;" parent="7baba1c4bc27f4b0-3" vertex="1">
          <mxGeometry x="45" y="120" width="10" height="220" as="geometry" />
        </mxCell>
        <mxCell id="7baba1c4bc27f4b0-4" value=":Turtle" style="shape=umlLifeline;perimeter=lifelinePerimeter;whiteSpace=wrap;html=1;container=1;collapsible=0;recursiveResize=0;outlineConnect=0;rounded=1;shadow=0;comic=0;labelBackgroundColor=none;strokeWidth=1;fontFamily=Verdana;fontSize=12;align=center;" parent="1" vertex="1">
          <mxGeometry x="610" y="80" width="100" height="580" as="geometry" />
        </mxCell>
        <mxCell id="-UHUzhMTuZ9a_9bw1Lbl-7" value="" style="html=1;points=[];perimeter=orthogonalPerimeter;rounded=0;shadow=0;comic=0;labelBackgroundColor=none;strokeWidth=1;fontFamily=Verdana;fontSize=12;align=center;" parent="7baba1c4bc27f4b0-4" vertex="1">
          <mxGeometry x="45" y="140" width="10" height="60" as="geometry" />
        </mxCell>
        <mxCell id="-UHUzhMTuZ9a_9bw1Lbl-9" value="" style="endArrow=classic;html=1;rounded=0;entryX=-0.033;entryY=0;entryDx=0;entryDy=0;entryPerimeter=0;exitX=1.048;exitY=0.483;exitDx=0;exitDy=0;exitPerimeter=0;" parent="7baba1c4bc27f4b0-4" edge="1">
          <mxGeometry relative="1" as="geometry">
            <mxPoint x="55" y="169.66000000000003" as="sourcePoint" />
            <mxPoint x="179.69000000000005" y="170.33999999999997" as="targetPoint" />
          </mxGeometry>
        </mxCell>
        <mxCell id="-UHUzhMTuZ9a_9bw1Lbl-10" value="Generate SVG" style="edgeLabel;resizable=0;html=1;align=center;verticalAlign=middle;labelBackgroundColor=#ffffff;" parent="-UHUzhMTuZ9a_9bw1Lbl-9" connectable="0" vertex="1">
          <mxGeometry relative="1" as="geometry" />
        </mxCell>
        <mxCell id="7baba1c4bc27f4b0-5" value=":SVGCreator" style="shape=umlLifeline;perimeter=lifelinePerimeter;whiteSpace=wrap;html=1;container=1;collapsible=0;recursiveResize=0;outlineConnect=0;rounded=1;shadow=0;comic=0;labelBackgroundColor=none;strokeWidth=1;fontFamily=Verdana;fontSize=12;align=center;" parent="1" vertex="1">
          <mxGeometry x="750" y="80" width="100" height="580" as="geometry" />
        </mxCell>
        <mxCell id="-UHUzhMTuZ9a_9bw1Lbl-11" value="" style="html=1;points=[];perimeter=orthogonalPerimeter;rounded=0;shadow=0;comic=0;labelBackgroundColor=none;strokeWidth=1;fontFamily=Verdana;fontSize=12;align=center;" parent="7baba1c4bc27f4b0-5" vertex="1">
          <mxGeometry x="45" y="160" width="10" height="60" as="geometry" />
        </mxCell>
        <mxCell id="-UHUzhMTuZ9a_9bw1Lbl-17" value="" style="endArrow=classic;html=1;rounded=0;" parent="7baba1c4bc27f4b0-5" edge="1">
          <mxGeometry relative="1" as="geometry">
            <mxPoint x="-220" y="270" as="sourcePoint" />
            <mxPoint x="320" y="270" as="targetPoint" />
            <Array as="points">
              <mxPoint x="-190" y="270" />
              <mxPoint x="320" y="270" />
            </Array>
          </mxGeometry>
        </mxCell>
        <mxCell id="-UHUzhMTuZ9a_9bw1Lbl-18" value="Evaluate" style="edgeLabel;resizable=0;html=1;align=center;verticalAlign=middle;labelBackgroundColor=#ffffff;" parent="-UHUzhMTuZ9a_9bw1Lbl-17" connectable="0" vertex="1">
          <mxGeometry relative="1" as="geometry" />
        </mxCell>
        <mxCell id="7baba1c4bc27f4b0-6" value=":PNGCreator" style="shape=umlLifeline;perimeter=lifelinePerimeter;whiteSpace=wrap;html=1;container=1;collapsible=0;recursiveResize=0;outlineConnect=0;rounded=1;shadow=0;comic=0;labelBackgroundColor=none;strokeWidth=1;fontFamily=Verdana;fontSize=12;align=center;" parent="1" vertex="1">
          <mxGeometry x="890" y="80" width="100" height="580" as="geometry" />
        </mxCell>
        <mxCell id="-UHUzhMTuZ9a_9bw1Lbl-12" value="" style="html=1;points=[];perimeter=orthogonalPerimeter;rounded=0;shadow=0;comic=0;labelBackgroundColor=none;strokeWidth=1;fontFamily=Verdana;fontSize=12;align=center;" parent="7baba1c4bc27f4b0-6" vertex="1">
          <mxGeometry x="45" y="180" width="10" height="60" as="geometry" />
        </mxCell>
        <mxCell id="-UHUzhMTuZ9a_9bw1Lbl-13" value="" style="endArrow=classic;html=1;rounded=0;entryX=-0.033;entryY=0;entryDx=0;entryDy=0;entryPerimeter=0;exitX=1.048;exitY=0.483;exitDx=0;exitDy=0;exitPerimeter=0;" parent="7baba1c4bc27f4b0-6" edge="1">
          <mxGeometry relative="1" as="geometry">
            <mxPoint x="-85" y="189.66000000000008" as="sourcePoint" />
            <mxPoint x="39.690000000000055" y="190.33999999999992" as="targetPoint" />
          </mxGeometry>
        </mxCell>
        <mxCell id="-UHUzhMTuZ9a_9bw1Lbl-14" value="Generate PNG" style="edgeLabel;resizable=0;html=1;align=center;verticalAlign=middle;labelBackgroundColor=#ffffff;" parent="-UHUzhMTuZ9a_9bw1Lbl-13" connectable="0" vertex="1">
          <mxGeometry relative="1" as="geometry" />
        </mxCell>
        <mxCell id="7baba1c4bc27f4b0-7" value=":EvaluationMetric" style="shape=umlLifeline;perimeter=lifelinePerimeter;whiteSpace=wrap;html=1;container=1;collapsible=0;recursiveResize=0;outlineConnect=0;rounded=1;shadow=0;comic=0;labelBackgroundColor=none;strokeWidth=1;fontFamily=Verdana;fontSize=12;align=center;" parent="1" vertex="1">
          <mxGeometry x="1030" y="80" width="110" height="580" as="geometry" />
        </mxCell>
        <mxCell id="-UHUzhMTuZ9a_9bw1Lbl-21" value="" style="html=1;points=[];perimeter=orthogonalPerimeter;rounded=0;shadow=0;comic=0;labelBackgroundColor=none;strokeWidth=1;fontFamily=Verdana;fontSize=12;align=center;" parent="7baba1c4bc27f4b0-7" vertex="1">
          <mxGeometry x="50" y="250" width="10" height="90" as="geometry" />
        </mxCell>
        <mxCell id="7baba1c4bc27f4b0-8" value=":Main" style="shape=umlLifeline;perimeter=lifelinePerimeter;whiteSpace=wrap;html=1;container=1;collapsible=0;recursiveResize=0;outlineConnect=0;rounded=1;shadow=0;comic=0;labelBackgroundColor=none;strokeWidth=1;fontFamily=Verdana;fontSize=12;align=center;" parent="1" vertex="1">
          <mxGeometry x="170" y="80" width="100" height="580" as="geometry" />
        </mxCell>
        <mxCell id="-UHUzhMTuZ9a_9bw1Lbl-27" value="" style="html=1;points=[];perimeter=orthogonalPerimeter;rounded=0;shadow=0;comic=0;labelBackgroundColor=none;strokeWidth=1;fontFamily=Verdana;fontSize=12;align=center;" parent="7baba1c4bc27f4b0-8" vertex="1">
          <mxGeometry x="45" y="100" width="10" height="440" as="geometry" />
        </mxCell>
        <mxCell id="-UHUzhMTuZ9a_9bw1Lbl-28" value="" style="endArrow=classic;html=1;rounded=0;dashed=1;" parent="7baba1c4bc27f4b0-8" edge="1">
          <mxGeometry relative="1" as="geometry">
            <mxPoint x="185" y="380" as="sourcePoint" />
            <mxPoint x="60" y="380" as="targetPoint" />
            <Array as="points" />
          </mxGeometry>
        </mxCell>
        <mxCell id="-UHUzhMTuZ9a_9bw1Lbl-29" value="Return Survivors" style="edgeLabel;resizable=0;html=1;align=center;verticalAlign=middle;labelBackgroundColor=#ffffff;" parent="-UHUzhMTuZ9a_9bw1Lbl-28" connectable="0" vertex="1">
          <mxGeometry relative="1" as="geometry" />
        </mxCell>
        <mxCell id="1AVtyDvA7BN9YdRGPxAG-2" value="" style="endArrow=classic;html=1;rounded=0;entryX=-0.033;entryY=0;entryDx=0;entryDy=0;entryPerimeter=0;" parent="1" target="1AVtyDvA7BN9YdRGPxAG-4" edge="1">
          <mxGeometry relative="1" as="geometry">
            <mxPoint x="230" y="190" as="sourcePoint" />
            <mxPoint x="330" y="190" as="targetPoint" />
          </mxGeometry>
        </mxCell>
        <mxCell id="1AVtyDvA7BN9YdRGPxAG-3" value="Create Generation" style="edgeLabel;resizable=0;html=1;align=center;verticalAlign=middle;labelBackgroundColor=#ffffff;" parent="1AVtyDvA7BN9YdRGPxAG-2" connectable="0" vertex="1">
          <mxGeometry relative="1" as="geometry" />
        </mxCell>
        <mxCell id="-UHUzhMTuZ9a_9bw1Lbl-25" value="" style="endArrow=classic;html=1;rounded=0;dashed=1;" parent="1" edge="1">
          <mxGeometry relative="1" as="geometry">
            <mxPoint x="510" y="410" as="sourcePoint" />
            <mxPoint x="370" y="410" as="targetPoint" />
            <Array as="points">
              <mxPoint x="370" y="410" />
            </Array>
          </mxGeometry>
        </mxCell>
        <mxCell id="-UHUzhMTuZ9a_9bw1Lbl-26" value="Return Individual Metrics" style="edgeLabel;resizable=0;html=1;align=center;verticalAlign=middle;labelBackgroundColor=#ffffff;" parent="-UHUzhMTuZ9a_9bw1Lbl-25" connectable="0" vertex="1">
          <mxGeometry relative="1" as="geometry" />
        </mxCell>
        <mxCell id="-UHUzhMTuZ9a_9bw1Lbl-32" value=":View" style="shape=umlLifeline;perimeter=lifelinePerimeter;whiteSpace=wrap;html=1;container=1;collapsible=0;recursiveResize=0;outlineConnect=0;rounded=1;shadow=0;comic=0;labelBackgroundColor=none;strokeWidth=1;fontFamily=Verdana;fontSize=12;align=center;" parent="1" vertex="1">
          <mxGeometry x="20" y="80" width="120" height="580" as="geometry" />
        </mxCell>
        <mxCell id="-UHUzhMTuZ9a_9bw1Lbl-37" value="" style="endArrow=classic;html=1;rounded=0;dashed=1;" parent="-UHUzhMTuZ9a_9bw1Lbl-32" edge="1">
          <mxGeometry relative="1" as="geometry">
            <mxPoint x="190" y="500" as="sourcePoint" />
            <mxPoint x="65" y="500" as="targetPoint" />
            <Array as="points">
              <mxPoint x="65" y="500" />
            </Array>
          </mxGeometry>
        </mxCell>
        <mxCell id="-UHUzhMTuZ9a_9bw1Lbl-38" value="Return Last Gen" style="edgeLabel;resizable=0;html=1;align=center;verticalAlign=middle;labelBackgroundColor=#ffffff;" parent="-UHUzhMTuZ9a_9bw1Lbl-37" connectable="0" vertex="1">
          <mxGeometry relative="1" as="geometry" />
        </mxCell>
        <mxCell id="-rFOTTSbWmvZ8LZ2-Km7-1" value="loop" style="shape=umlFrame;whiteSpace=wrap;html=1;" vertex="1" parent="1">
          <mxGeometry x="130" y="160" width="990" height="370" as="geometry" />
        </mxCell>
        <mxCell id="-rFOTTSbWmvZ8LZ2-Km7-2" value="n epochs" style="text;html=1;strokeColor=none;fillColor=none;align=center;verticalAlign=middle;whiteSpace=wrap;rounded=0;" vertex="1" parent="1">
          <mxGeometry x="130" y="190" width="60" height="30" as="geometry" />
        </mxCell>
      </root>
    </mxGraphModel>
  </diagram>
</mxfile>
